HIERARCHY
ROOT Hips
{
	OFFSET 0.00 0.00 0.00
	CHANNELS 6 Xposition Yposition Zposition Xrotation Yrotation Zrotation
	JOINT Spine
	{
		OFFSET 0.00000 7.06766 0.00000
		CHANNELS 3 Xrotation Yrotation Zrotation
		JOINT Head
		{
			OFFSET 0.00000 15.03989 0.00000
			CHANNELS 3 Xrotation Yrotation Zrotation
			End Site
			{
				OFFSET 0.00000 4.52755 0.00000
			}
		}
		JOINT LeftShoulder
		{
			OFFSET 0.00000 10.53037 0.00000
			CHANNELS 3 Xrotation Yrotation Zrotation
			JOINT LeftArm
			{
				OFFSET 7.02886 0.00000 0.00000
				CHANNELS 3 Xrotation Yrotation Zrotation
				JOINT LeftForeArm
				{
					OFFSET 10.79770 0.00000 0.00000
					CHANNELS 3 Yrotation Zrotation Xrotation
					JOINT LeftHand
					{
						OFFSET 7.90744 0.00000 0.00000
						CHANNELS 3 Xrotation Yrotation Zrotation
						JOINT LeftHandThumb1
						{
							OFFSET 0.00000 0.00000 0.00000
							CHANNELS 3 Xrotation Zrotation Yrotation
							End Site
							{
								OFFSET 0.00000 0.00000 3.93700
							}
						}
						End Site
						{
							OFFSET 3.93700 0.00000 0.00000
						}
					}
				}
			}
		}
		JOINT RightShoulder
		{
			OFFSET 0.00000 10.53037 0.00000
			CHANNELS 3 Xrotation Yrotation Zrotation
			JOINT RightArm
			{
				OFFSET -7.02886 0.00000 0.00000
				CHANNELS 3 Xrotation Yrotation Zrotation
				JOINT RightForeArm
				{
					OFFSET -10.79770 0.00000 0.00000
					CHANNELS 3 Yrotation Zrotation Xrotation
					JOINT RightHand
					{
						OFFSET -7.90744 0.00000 0.00000
						CHANNELS 3 Xrotation Yrotation Zrotation
						JOINT RightHandThumb1
						{
							OFFSET 0.00000 0.00000 0.00000
							CHANNELS 3 Xrotation Zrotation Yrotation
							End Site
							{
								OFFSET 0.00000 0.00000 3.93700
							}
						}
						End Site
						{
							OFFSET -3.93700 0.00000 0.00000
						}
					}
				}
			}
		}
	}
	JOINT LeftUpLeg
	{
		OFFSET 4.01300 0.00000 0.00000
		CHANNELS 3 Xrotation Yrotation Zrotation
		JOINT LeftLeg
		{
			OFFSET 0.00000 -16.89976 0.00000
			CHANNELS 3 Xrotation Yrotation Zrotation
			JOINT LeftFoot
			{
				OFFSET 0.00000 -17.38918 0.00000
				CHANNELS 3 Xrotation Yrotation Zrotation
				JOINT LeftToeBase
				{
					OFFSET 0.00000 -1.27456 4.75673
					CHANNELS 3 Xrotation Yrotation Zrotation
					End Site
					{
						OFFSET 0.00000 0.00000 2.95275
					}
				}
			}
		}
	}
	JOINT RightUpLeg
	{
		OFFSET -4.01300 0.00000 0.00000
		CHANNELS 3 Xrotation Yrotation Zrotation
		JOINT RightLeg
		{
			OFFSET 0.00000 -16.89976 0.00000
			CHANNELS 3 Xrotation Yrotation Zrotation
			JOINT RightFoot
			{
				OFFSET 0.00000 -17.38918 0.00000
				CHANNELS 3 Xrotation Yrotation Zrotation
				JOINT RightToeBase
				{
					OFFSET 0.00000 -1.27456 4.75673
					CHANNELS 3 Xrotation Yrotation Zrotation
					End Site
					{
						OFFSET 0.00000 0.00000 2.95275
					}
				}
			}
		}
	}
}
MOTION
Frames: 22
Frame Time: 0.008333
 19.9012 17.2526 -19.8356 91.5463 58.8259 -100.6269 36.7043 1.0445 9.0611 -4.0601 -2.3353 -0.9077 -43.7192 -0.9915 18.0131 5.5517 29.6610 -16.8047 -1.2088 0.0000 -7.1059 -0.8556 12.3274 4.0011 33.1476 -0.0000 26.2537 -6.6700 -8.0446 -17.9446 -33.0958 -31.9091 18.1331 11.3920 -0.0000 30.0945 -1.4031 -14.7771 -5.4851 32.8623 0.0000 -24.3270 -2.8220 13.1779 6.0021 72.2081 -0.0000 -0.0000 -17.0632 19.5449 -3.3506 -74.3437 -0.0000 -0.0000 -118.3374 -14.6464 10.5946 111.8651 0.0000 -0.0000 -42.3004 -26.0845 -14.5575 22.1067 0.0000 -0.0000
 19.8980 17.2557 -19.8298 91.4747 58.9293 -100.5806 36.6235 1.0547 9.0703 -4.0328 -2.3651 -0.9699 -43.7344 -0.9525 17.9732 5.5110 29.6241 -16.7590 -1.1851 0.0000 -7.1754 -0.8401 12.2757 3.9453 33.1476 -0.0000 26.2537 -6.6717 -8.0537 -17.9733 -33.1830 -31.9288 18.1033 11.3703 -0.0000 30.1001 -1.4111 -14.6473 -5.5640 32.8623 0.0000 -24.3270 -2.7403 13.2327 6.0334 72.2173 -0.0000 0.0000 -17.0834 19.5266 -3.3097 -74.3205 0.0000 0.0000 -118.2220 -14.6754 10.6566 111.8273 -0.0000 0.0000 -42.2773 -26.0957 -14.5428 22.1723 -0.0000 0.0000
 19.8937 17.2592 -19.8254 91.4443 59.0082 -100.5650 36.4929 1.0428 9.0879 -3.9840 -2.3546 -1.0055 -43.7018 -0.9005 17.9499 5.5675 29.5484 -16.7971 -1.1790 0.0000 -7.2248 -0.8521 12.3166 3.9886 33.1476 -0.0000 26.2537 -6.6291 -8.0602 -17.9698 -33.3166 -31.9365 18.0376 11.3321 -0.0000 30.1483 -1.4289 -14.6222 -5.6432 32.8623 0.0000 -24.3270 -2.6965 13.2671 6.0635 72.2447 -0.0000 -0.0000 -17.0502 19.5330 -3.3522 -74.5846 -0.0000 0.0000 -118.1390 -14.6892 10.6919 111.8110 -0.0000 0.0000 -42.2288 -26.1066 -14.4524 22.1644 0.0000 -0.0000
 19.8889 17.2633 -19.8211 91.4334 59.1109 -100.5606 36.3891 1.0424 9.1082 -3.9696 -2.3449 -1.0624 -43.7484 -0.8890 17.9119 5.5423 29.5223 -16.7534 -1.2126 0.0000 -7.1500 -0.8580 12.3934 3.9915 33.1476 -0.0000 26.2537 -6.5297 -8.0911 -17.9629 -33.2249 -31.8975 18.0826 11.3558 -0.0000 29.9327 -1.4226 -14.5628 -5.6407 32.8623 0.0000 -24.3270 -2.6239 13.2896 6.0815 72.2767 -0.0000 -0.0000 -17.0415 19.5389 -3.3249 -74.1329 -0.0000 -0.0000 -118.0210 -14.6895 10.7319 111.7611 -0.0000 0.0000 -42.2197 -26.1063 -14.4880 22.1804 -0.0000 0.0000
 19.8834 17.2657 -19.8184 91.4853 59.1858 -100.5949 36.2285 0.9677 9.1386 -3.8976 -2.3153 -1.1342 -43.7214 -0.8602 17.8662 5.4531 29.5318 -16.6680 -1.2531 0.0000 -7.0948 -0.8627 12.3939 4.0130 33.1476 -0.0000 26.2537 -6.4547 -8.1390 -17.9914 -33.5506 -31.9111 18.0029 11.3078 -0.0000 30.1498 -1.4216 -14.6121 -5.6183 32.8623 0.0000 -24.3270 -2.5768 13.2681 6.0763 72.3128 -0.0000 -0.0000 -17.0219 19.5481 -3.3439 -74.3850 -0.0000 -0.0000 -117.9596 -14.6630 10.7392 111.7625 0.0000 -0.0000 -42.1499 -26.1318 -14.3669 22.0865 -0.0000 0.0000
 19.8775 17.2691 -19.8124 91.4536 59.2816 -100.5601 36.0872 0.9560 9.1112 -3.8763 -2.2627 -1.1127 -43.6640 -0.8318 17.9156 5.4658 29.4676 -16.7621 -1.2449 0.0000 -7.0881 -0.8759 12.2455 4.1227 33.1476 -0.0000 26.2537 -6.4212 -8.1820 -17.9549 -33.7470 -31.8866 17.9019 11.2409 -0.0000 30.2483 -1.3979 -14.5092 -5.5634 32.8623 0.0000 -24.3270 -2.5150 13.2973 6.0887 72.3479 0.0000 0.0000 -16.9848 19.5392 -3.3573 -74.3025 -0.0000 0.0000 -117.8539 -14.6577 10.8030 111.7087 0.0000 0.0000 -42.1392 -26.1330 -14.4530 22.1428 0.0000 -0.0000
 19.8736 17.2729 -19.8096 91.4499 59.3876 -100.5636 35.9394 0.9303 9.1477 -3.8368 -2.2323 -1.1823 -43.7247 -0.8296 17.8499 5.4542 29.4538 -16.6641 -1.2554 0.0000 -7.0165 -0.8743 12.3152 4.0925 33.1476 -0.0000 26.2537 -6.3527 -8.2114 -17.9778 -33.7592 -31.8488 17.9296 11.2537 -0.0000 30.1943 -1.4112 -14.6043 -5.5804 32.8623 0.0000 -24.3270 -2.4370 13.3141 6.1039 72.3735 0.0000 0.0000 -16.9643 19.5359 -3.3503 -74.4156 0.0000 -0.0000 -117.7482 -14.6577 10.8397 111.6963 -0.0000 -0.0000 -42.0898 -26.1442 -14.3833 22.0917 0.0000 -0.0000
 19.8695 17.2766 -19.8068 91.4524 59.4911 -100.5698 35.7816 0.9093 9.1819 -3.8233 -2.2582 -1.2738 -43.7981 -0.8280 17.8439 5.5889 29.4155 -16.7174 -1.3176 0.0000 -7.0746 -0.9279 12.4347 4.3016 33.1476 -0.0000 26.2537 -6.3360 -8.2362 -17.9825 -33.7492 -31.7962 17.9029 11.2325 -0.0000 30.0872 -1.3913 -14.5605 -5.5180 32.8623 0.0000 -24.3270 -2.3600 13.3211 6.1149 72.4010 -0.0000 -0.0000 -16.9583 19.5364 -3.3339 -74.1779 -0.0000 -0.0000 -117.6411 -14.6550 10.8675 111.6740 0.0000 -0.0000 -42.0545 -26.1484 -14.3539 22.1241 -0.0000 0.0000
 19.8644 17.2797 -19.8042 91.4579 59.5912 -100.5753 35.6099 0.8797 9.2053 -3.8367 -2.2798 -1.3175 -43.7794 -0.7686 17.8526 5.7041 29.3222 -16.8036 -1.3723 0.0000 -7.1493 -0.9293 12.4182 4.3136 33.1476 -0.0000 26.2537 -6.2253 -8.3223 -17.9777 -34.0589 -31.7699 17.8243 11.1983 -0.0000 30.1623 -1.3890 -14.5208 -5.5239 32.8623 0.0000 -24.3270 -2.2906 13.3286 6.1220 72.4367 -0.0000 0.0000 -16.9425 19.5498 -3.3382 -74.1676 0.0000 0.0000 -117.5436 -14.6487 10.8951 111.6495 0.0000 0.0000 -41.9969 -26.1647 -14.3139 22.0889 -0.0000 0.0000
 19.8587 17.2831 -19.8016 91.4803 59.7178 -100.5862 35.4432 0.8382 9.2225 -3.7950 -2.3174 -1.3691 -43.7574 -0.7837 17.8165 5.5733 29.3711 -16.6965 -1.4010 0.0000 -7.0148 -0.9227 12.4262 4.2802 33.1476 -0.0000 26.2537 -6.1433 -8.3489 -18.0002 -34.1364 -31.7387 17.8170 11.1617 -0.0000 30.0536 -1.4103 -14.5484 -5.5976 32.8623 0.0000 -24.3270 -2.1889 13.3365 6.1211 72.4616 0.0000 -0.0000 -16.9377 19.5573 -3.3004 -74.2389 -0.0000 0.0000 -117.4143 -14.6154 10.9316 111.6130 0.0000 -0.0000 -41.9765 -26.1280 -14.3702 22.1327 0.0000 0.0000
 19.8542 17.2868 -19.7984 91.4722 59.8467 -100.5968 35.2741 0.8379 9.2608 -3.8036 -2.2731 -1.4280 -43.7652 -0.7855 17.8062 5.3214 29.4092 -16.5737 -1.3526 0.0000 -6.7366 -0.9100 12.2387 4.2853 33.1476 -0.0000 26.2537 -6.1310 -8.3812 -17.9851 -34.1518 -31.6649 17.7672 11.1351 -0.0000 29.9927 -1.4043 -14.4671 -5.6044 32.8623 0.0000 -24.3270 -2.0925 13.3622 6.1519 72.4920 0.0000 -0.0000 -16.9056 19.5637 -3.2905 -74.3152 -0.0000 -0.0000 -117.2776 -14.6390 10.9705 111.5893 0.0000 -0.0000 -41.9305 -26.1607 -14.3140 22.0539 0.0000 0.0000
 19.8491 17.2882 -19.7975 91.5216 59.9322 -100.6269 35.0439 0.7565 9.2977 -3.7982 -2.2590 -1.5006 -43.7579 -0.6584 17.8429 5.3168 29.2561 -16.6140 -1.3706 0.0000 -6.8166 -0.9275 12.3671 4.3229 33.1476 -0.0000 26.2537 -6.0658 -8.4260 -18.0003 -34.3086 -31.6101 17.7225 11.1005 -0.0000 29.9599 -1.3863 -14.4635 -5.5342 32.8623 0.0000 -24.3270 -2.0338 13.3419 6.1345 72.5317 -0.0000 -0.0000 -16.8895 19.5962 -3.3124 -74.1531 -0.0000 0.0000 -117.2021 -14.6115 10.9771 111.5808 -0.0000 0.0000 -41.8796 -26.1529 -14.2856 22.1074 0.0000 -0.0000
 19.8418 17.2905 -19.7956 91.5407 60.0191 -100.6234 34.7935 0.7035 9.3071 -3.8054 -2.2882 -1.5386 -43.8209 -0.6947 17.8182 5.3683 29.2936 -16.5553 -1.4364 0.0000 -6.7608 -0.9403 12.3916 4.3738 33.1476 -0.0000 26.2537 -6.0849 -8.4377 -18.0029 -34.3757 -31.5888 17.6370 11.1115 -0.0000 30.0189 -1.3731 -14.4704 -5.4794 32.8623 0.0000 -24.3270 -1.9705 13.3446 6.1149 72.5668 0.0000 0.0000 -16.8979 19.6159 -3.2551 -73.8018 0.0000 0.0000 -117.1222 -14.5801 11.0099 111.5540 0.0000 0.0000 -41.8474 -26.1596 -14.2876 22.0658 0.0000 -0.0000
 19.8343 17.2953 -19.7904 91.5164 60.1245 -100.6050 34.5827 0.6182 9.3282 -3.8604 -2.2041 -1.6006 -43.9082 -0.6038 17.8951 5.4490 29.1849 -16.5830 -1.3970 0.0000 -6.7505 -0.9117 12.3563 4.2532 33.1476 -0.0000 26.2537 -6.0510 -8.4435 -18.0185 -34.4233 -31.5246 17.6644 11.1228 -0.0000 30.0293 -1.3859 -14.5236 -5.5105 32.8623 0.0000 -24.3270 -1.9061 13.3792 6.1356 72.5964 -0.0000 0.0000 -16.8794 19.6344 -3.2437 -74.2813 -0.0000 -0.0000 -117.0093 -14.5788 11.0646 111.5090 -0.0000 -0.0000 -41.8167 -26.1587 -14.3089 22.1378 0.0000 -0.0000
 19.8263 17.3006 -19.7840 91.4899 60.2640 -100.5951 34.3933 0.5598 9.3443 -3.9053 -2.1701 -1.6360 -43.8737 -0.5207 17.9209 5.3808 29.1350 -16.5388 -1.4326 0.0000 -6.8652 -0.9326 12.4533 4.3170 33.1476 -0.0000 26.2537 -6.0826 -8.4193 -18.0151 -34.3995 -31.4124 17.6454 11.0586 -0.0000 29.9369 -1.3891 -14.5386 -5.5175 32.8623 0.0000 -24.3270 -1.8102 13.4250 6.1723 72.6325 -0.0000 0.0000 -16.8880 19.6509 -3.2236 -74.0257 0.0000 -0.0000 -116.8601 -14.5796 11.1263 111.4485 0.0000 -0.0000 -41.7810 -26.1578 -14.3368 22.1200 0.0000 -0.0000
 19.8174 17.3029 -19.7804 91.5246 60.3354 -100.6279 34.0949 0.5039 9.3857 -3.9488 -2.1089 -1.6656 -43.9107 -0.4891 17.9543 5.3543 29.0872 -16.5249 -1.4097 0.0000 -6.7627 -0.9561 12.4147 4.4386 33.1476 -0.0000 26.2537 -6.0098 -8.5043 -18.0025 -34.5864 -31.3197 17.5778 11.0411 -0.0000 30.0331 -1.3770 -14.5287 -5.4733 32.8623 0.0000 -24.3270 -1.7807 13.4324 6.1928 72.6868 -0.0000 -0.0000 -16.8872 19.6621 -3.1962 -73.9443 -0.0000 -0.0000 -116.7959 -14.5737 11.1459 111.4248 0.0000 0.0000 -41.7323 -26.1890 -14.3077 22.0779 0.0000 -0.0000
 19.8067 17.3042 -19.7781 91.5916 60.4295 -100.6929 33.8348 0.4754 9.4331 -4.0396 -2.1789 -1.7076 -43.8808 -0.4369 17.9954 5.3663 29.0159 -16.5875 -1.4567 0.0000 -6.7658 -0.9400 12.4553 4.3504 33.1476 -0.0000 26.2537 -5.9189 -8.6324 -17.9780 -34.6824 -31.1683 17.5536 10.9704 -0.0000 29.9888 -1.3711 -14.4773 -5.4690 32.8623 0.0000 -24.3270 -1.7312 13.4253 6.2100 72.7485 0.0000 0.0000 -16.9281 19.6711 -3.1640 -73.9880 -0.0000 -0.0000 -116.7146 -14.5535 11.1485 111.4011 -0.0000 0.0000 -41.6862 -26.1767 -14.3043 22.1014 -0.0000 -0.0000
 19.7960 17.3071 -19.7741 91.6062 60.5085 -100.6979 33.5424 0.4299 9.4533 -4.1352 -2.2176 -1.7527 -43.9809 -0.4078 18.0087 5.4788 28.9553 -16.5746 -1.4926 0.0000 -6.8012 -0.9536 12.4780 4.4050 33.1476 -0.0000 26.2537 -5.9346 -8.6734 -17.9816 -34.7015 -31.1097 17.5130 11.0019 -0.0000 29.9890 -1.3580 -14.4922 -5.4115 32.8623 0.0000 -24.3270 -1.6920 13.4385 6.2143 72.7927 0.0000 -0.0000 -16.9342 19.7117 -3.1318 -74.1436 -0.0000 -0.0000 -116.6439 -14.5432 11.1796 111.3536 -0.0000 0.0000 -41.6516 -26.2178 -14.3384 22.1154 -0.0000 0.0000
 19.7845 17.3140 -19.7695 91.6882 60.6372 -100.8020 33.3427 0.3846 9.5511 -4.3108 -2.2374 -1.8466 -43.8875 -0.1863 18.0720 5.3043 28.7280 -16.6276 -1.4209 0.0000 -6.8423 -0.9978 12.4264 4.6274 33.1476 -0.0000 26.2537 -6.0393 -8.7101 -18.0660 -34.6593 -31.0493 17.5372 11.0007 -0.0000 29.9509 -1.3648 -14.4989 -5.4361 32.8623 0.0000 -24.3270 -1.6220 13.4284 6.2623 72.8607 -0.0000 -0.0000 -16.9667 19.7157 -3.1402 -73.5969 -0.0000 -0.0000 -116.5030 -14.5528 11.1764 111.2954 0.0000 0.0000 -41.6154 -26.2160 -14.3955 22.1597 0.0000 0.0000
 19.7735 17.3175 -19.7663 91.7131 60.7258 -100.8220 33.0533 0.2973 9.5869 -4.4083 -2.1319 -1.8902 -43.9706 -0.0834 18.1035 5.3923 28.5946 -16.5923 -1.3801 0.0000 -6.8329 -0.9421 12.4159 4.3734 33.1476 -0.0000 26.2537 -5.9446 -8.7104 -18.0243 -34.6852 -30.9684 17.4801 11.0241 -0.0000 29.8941 -1.3475 -14.5178 -5.3605 32.8623 0.0000 -24.3270 -1.5721 13.4396 6.2735 72.9028 -0.0000 -0.0000 -16.9637 19.7276 -3.1218 -73.8320 0.0000 -0.0000 -116.4223 -14.5374 11.1971 111.2596 -0.0000 0.0000 -41.5499 -26.2400 -14.3355 22.0546 0.0000 -0.0000
 19.7619 17.3234 -19.7643 91.8035 60.8697 -100.9260 32.8528 0.1773 9.6761 -4.5476 -2.0056 -1.9410 -44.0149 0.0608 18.1936 5.3874 28.5229 -16.6087 -1.4238 0.0000 -6.8643 -0.9727 12.4481 4.5038 33.1476 -0.0000 26.2537 -5.8935 -8.7409 -18.0386 -34.8429 -30.8574 17.4620 10.9928 -0.0000 29.8567 -1.3642 -14.4785 -5.4409 32.8623 0.0000 -24.3270 -1.4746 13.4230 6.3018 72.9542 -0.0000 -0.0000 -16.9954 19.7468 -3.0777 -73.5086 -0.0000 -0.0000 -116.2755 -14.5312 11.1830 111.2134 0.0000 0.0000 -41.5255 -26.2166 -14.3823 22.1231 -0.0000 0.0000
 19.7500 17.3285 -19.7606 91.8906 60.9951 -101.0185 32.6063 0.0458 9.7391 -4.6609 -1.9130 -2.0037 -43.9405 0.2500 18.2479 5.3966 28.3591 -16.6238 -1.3703 0.0000 -6.9248 -0.9315 12.3979 4.3306 33.1476 -0.0000 26.2537 -5.9023 -8.6988 -18.0219 -34.8731 -30.7705 17.4027 11.0009 -0.0000 29.8373 -1.3645 -14.5394 -5.4199 32.8623 0.0000 -24.3270 -1.3969 13.4141 6.3332 73.0066 -0.0000 -0.0000 -17.0150 19.7565 -3.0752 -73.4910 -0.0000 0.0000 -116.1669 -14.5182 11.1630 111.1771 0.0000 0.0000 -41.3578 -26.2575 -14.1388 21.7864 0.0000 -0.0000
